<?xml version="1.0" encoding="UTF-8" standalone="no" ?>
<!DOCTYPE svg PUBLIC "-//W3C//DTD SVG 1.1//EN" "http://www.w3.org/Graphics/SVG/1.1/DTD/svg11.dtd">
<svg xmlns="http://www.w3.org/2000/svg" xmlns:xlink="http://www.w3.org/1999/xlink" version="1.1" width="576" height="576" viewBox="0 0 576 576" xml:space="preserve">
<g transform="matrix(0.27 0 0 0.27 288.11 288.03)" id="Selection"  >
<path style="stroke: rgb(255,64,87); stroke-width: 1; stroke-dasharray: none; stroke-linecap: butt; stroke-dashoffset: 0; stroke-linejoin: miter; stroke-miterlimit: 4; fill: rgb(255,64,87); fill-rule: nonzero; opacity: 1;"  transform=" translate(-1032.08, -1032.26)" d="M 819 203 C 851.36 179.36 904.72 158.92 943 145.7 C 943 145.7 954 142.56 954 142.56 C 954 142.56 1000 127.43 1000 127.43 C 1000 127.43 1018 121.54 1018 121.54 C 1020.29 121.48 1026.41 123.88 1029 124.74 C 1050.47 131.88 1057.59 144.5 1073 151.48 C 1085.2 157.01 1089.1 154.69 1101 152 C 1101 152 1101 164 1101 164 C 1101 164 1101.96 180 1101.96 180 C 1101.65 187.98 1100.42 198.98 1096.59 206 C 1091.84 214.69 1083.17 218.99 1074 221.57 C 1062.56 224.8 1046.09 224.02 1034 224 C 1034 224 1017 223 1017 223 C 1017 223 993 223 993 223 C 993 223 979 224 979 224 C 979 224 964 224 964 224 C 950.05 224.02 919.57 228.83 905 231.39 C 905 231.39 895 232.46 895 232.46 C 895 232.46 869 238.63 869 238.63 C 869 238.63 858 240.75 858 240.75 C 836.35 246.03 802.95 257.42 782 265.61 C 782 265.61 772 270.13 772 270.13 C 772 270.13 764 272.92 764 272.92 C 764 272.92 753 278.21 753 278.21 C 753 278.21 745 281.33 745 281.33 C 745 281.33 719 294.19 719 294.19 C 719 294.19 681 312.97 681 312.97 C 681 312.97 656 326.63 656 326.63 C 656 326.63 597 357.73 597 357.73 C 575.92 368.34 554.48 378.46 535 391.9 C 535 391.9 506 415.57 506 415.57 C 506 415.57 453 458.92 453 458.92 C 403.95 499.35 354.52 543.58 315.5 594 C 283.42 635.44 259.75 679.36 243.07 729 C 229.3 770 224.41 813.22 219.84 856 C 219.84 856 213.15 909 213.15 909 C 213.15 909 202.72 995 202.72 995 C 200.88 1009.85 199.99 1014.53 192.69 1028 C 185.25 1041.73 175.26 1054.64 174.37 1071 C 174.37 1071 179.58 1106 179.58 1106 C 179.58 1106 189.59 1169 189.59 1169 C 189.59 1169 195 1207 195 1207 C 190.82 1204.86 184.67 1199.88 180 1200.49 C 174.28 1201.25 168.71 1208.46 168.23 1214 C 167.55 1221.76 177.09 1238.38 185 1239.89 C 192.1 1241.24 196.27 1234.71 202 1232 C 225.15 1272.66 243.95 1331.87 271.04 1368 C 284.94 1386.55 320.74 1419.08 339 1436.09 C 394.82 1488.09 454.12 1536.16 513 1584.61 C 513 1584.61 582 1642.28 582 1642.28 C 582 1642.28 601 1659.07 601 1659.07 C 603.56 1661.4 608.83 1666.58 612 1667.53 C 614.82 1668.38 624.66 1666.07 628 1665.4 C 639.19 1663.17 647.04 1663.7 656.83 1656.1 C 659.71 1653.86 661.64 1650.74 664 1648 C 671.63 1664.37 659.6 1677.79 644 1682 C 644 1682 644 1684 644 1684 C 644 1684 682 1702.69 682 1702.69 C 703.31 1712.31 729.28 1721.71 752 1727.25 C 763.63 1730.09 797.65 1735.98 809 1736 C 809 1736 833 1737.09 833 1737.09 C 833 1737.09 896 1743.83 896 1743.83 C 896 1743.83 913 1745.15 913 1745.15 C 913 1745.15 954 1751.57 954 1751.57 C 954 1751.57 974 1754.25 974 1754.25 C 974 1754.25 1000 1759.39 1000 1759.39 C 1000 1759.39 1014 1761.45 1014 1761.45 C 1014 1761.45 1040 1767.34 1040 1767.34 C 1040 1767.34 1051 1769.21 1051 1769.21 C 1051 1769.21 1061 1771.45 1061 1771.45 C 1065.42 1771.91 1072.35 1769.34 1077 1768.46 C 1077 1768.46 1115 1761.27 1115 1761.27 C 1115 1761.27 1131 1759.72 1131 1759.72 C 1131 1759.72 1169 1755.17 1169 1755.17 C 1175.6 1754.54 1188.25 1754.66 1194 1752.21 C 1201.21 1749.14 1206.32 1742.68 1212.17 1737.74 C 1215.3 1735.1 1226.31 1728.25 1227.57 1725.87 C 1228.84 1723.46 1230.47 1707 1231 1703 C 1231 1703 1242 1711 1242 1711 C 1245.11 1698.19 1238.73 1690.92 1234 1680 C 1239.25 1681.54 1240.96 1684 1244.99 1687.58 C 1256.24 1697.56 1260.36 1706.86 1269 1716 C 1271.45 1710.51 1279.61 1697.6 1286.96 1699.7 C 1290.58 1700.74 1291.76 1704.9 1293 1708 C 1293 1708 1298 1681 1298 1681 C 1303.46 1681.89 1304.45 1683.45 1307.39 1688 C 1308.53 1689.77 1310.43 1693.8 1313 1693.38 C 1315.67 1692.94 1317.57 1688.17 1318.59 1686 C 1320.75 1681.4 1323.25 1677.84 1328 1675.7 C 1334.55 1672.44 1342.15 1675.25 1349 1675.7 C 1353.78 1676.23 1358.32 1674.66 1363 1674 C 1363 1674 1360.56 1684 1360.56 1684 C 1360.09 1688.79 1362.95 1694.62 1368 1695.65 C 1372.67 1696.59 1377.46 1692.95 1381 1690.42 C 1387.93 1685.47 1396.52 1677.19 1404 1674 C 1405.86 1678.11 1407.29 1680.54 1410.3 1683.99 C 1414.47 1688.75 1420.56 1693.09 1427 1693.81 C 1439.33 1695.21 1460.56 1682.12 1471 1675.81 C 1471 1675.81 1484 1668.42 1484 1668.42 C 1484 1668.42 1500 1658.96 1500 1658.96 C 1500 1658.96 1519 1647.72 1519 1647.72 C 1519 1647.72 1593 1602.06 1593 1602.06 C 1640.58 1572.39 1687.64 1541.58 1734 1510.04 C 1734 1510.04 1802 1463.48 1802 1463.48 C 1809.63 1458.31 1823.93 1446.67 1832 1444 C 1832 1444 1830 1473 1830 1473 C 1830 1473 1842 1436 1842 1436 C 1846.89 1438.03 1851.44 1441.5 1857 1441.38 C 1869.95 1441.08 1881.78 1419.45 1889.46 1410 C 1901.63 1395.02 1919.14 1378.52 1935 1367.5 C 1941.09 1363.26 1946.82 1358.27 1954 1356 C 1954 1356 1941.86 1385 1941.86 1385 C 1941.86 1385 1914.31 1442 1914.31 1442 C 1914.31 1442 1888.99 1488 1888.99 1488 C 1857.73 1541.11 1820.99 1588.8 1778.41 1633.28 C 1778.41 1633.28 1761.58 1651.09 1761.58 1651.09 C 1759.63 1653.19 1755.16 1657.72 1754.02 1660 C 1754.02 1660 1751.1 1677 1751.1 1677 C 1747.09 1693.43 1737.57 1703.97 1720 1704 C 1706.43 1704.02 1693.58 1702.4 1681 1708.6 C 1677.14 1710.51 1671.32 1713.27 1670.61 1718 C 1669.6 1724.75 1677.28 1728.58 1677 1736 C 1671.96 1733.17 1667.43 1729.44 1662 1727.37 C 1647.25 1721.77 1632.35 1726.55 1618 1731.33 C 1614.24 1732.59 1600.27 1735.47 1600.34 1740.05 C 1600.37 1742.47 1603.42 1745.37 1605.02 1747 C 1609.72 1751.81 1615.43 1755.7 1619.61 1761 C 1621.36 1763.21 1623.16 1766.49 1624.58 1769 C 1631.93 1782.02 1631.12 1785.92 1631 1800 C 1625.83 1797 1612.72 1783.72 1608 1779 C 1605.6 1776.6 1600.44 1770.45 1597 1770.41 C 1594.84 1770.39 1589.12 1774.06 1587 1775.28 C 1576.78 1781.21 1567.77 1789 1559 1796.84 C 1559 1796.84 1517 1836.92 1517 1836.92 C 1510.82 1842.63 1500.74 1849.31 1497.61 1857 C 1494.02 1865.83 1496.97 1880.46 1497 1890 C 1497 1890 1489 1890 1489 1890 C 1474.04 1889.98 1447.77 1883.74 1438.82 1900.04 C 1432.73 1911.15 1435.99 1925.17 1436 1937 C 1422.95 1934.65 1419.84 1933.32 1410.3 1923.08 C 1403.88 1916.2 1395.87 1904.28 1386 1903.17 C 1378.93 1902.38 1364.37 1905.55 1357 1907 C 1357 1907 1335 1911.54 1335 1911.54 C 1335 1911.54 1325 1913.43 1325 1913.43 C 1325 1913.43 1311 1918.58 1311 1918.58 C 1311 1918.58 1304.07 1921.41 1304.07 1921.41 C 1298.32 1924.98 1302.97 1928.39 1302.8 1934 C 1302.57 1941.99 1295.34 1943.11 1289 1942.98 C 1270.6 1942.63 1265.54 1937.01 1250 1929.37 C 1250 1929.37 1242 1926.13 1242 1926.13 C 1242 1926.13 1231 1920.92 1231 1920.92 C 1231 1920.92 1212 1914.72 1212 1914.72 C 1197.3 1910.34 1177.16 1910.06 1162 1912.3 C 1162 1912.3 1148 1915.64 1148 1915.64 C 1143.62 1916.14 1138.47 1913.64 1134 1912.67 C 1134 1912.67 1103 1906.4 1103 1906.4 C 1093.06 1904.41 1052.94 1900.12 1043 1900 C 1043 1900 1024 1899 1024 1899 C 1024 1899 981 1899 981 1899 C 981 1899 966 1900 966 1900 C 966 1900 927 1902.17 927 1902.17 C 927 1902.17 906 1904 906 1904 C 906 1904 835 1911 835 1911 C 835 1897.26 837.09 1896.74 834 1883 C 834 1883 832 1883 832 1883 C 828.84 1891.32 817.31 1892.78 810 1889.32 C 810 1889.32 782 1873.49 782 1873.49 C 782 1873.49 750 1857.17 750 1857.17 C 750 1857.17 736 1850.71 736 1850.71 C 736 1850.71 708 1837.96 708 1837.96 C 708 1837.96 698 1833 698 1833 C 698 1833 672 1821.69 672 1821.69 C 672 1821.69 645 1808.65 645 1808.65 C 642.48 1807.89 639.62 1808 637 1808 C 608.85 1807.95 598.65 1807.53 571 1799.23 C 559.9 1795.9 542.69 1787.93 533 1781.62 C 520.74 1773.64 514.62 1766.32 499 1760.95 C 499 1760.95 490 1758.87 490 1758.87 C 465.9 1753.1 442.56 1755.28 418 1755 C 403.7 1754.83 390.02 1750.85 377 1745.33 C 377 1745.33 369 1742.18 369 1742.18 C 333.74 1725.1 309.37 1692.78 295.2 1657 C 290.72 1645.67 287.33 1633.87 284.65 1622 C 282.75 1613.58 281.7 1604.78 277.73 1597 C 273.83 1589.35 265.76 1581.13 258 1577.4 C 250.18 1573.64 246.14 1576.57 243.55 1572.71 C 243.55 1572.71 237.66 1557 237.66 1557 C 237.66 1557 227.99 1532 227.99 1532 C 227.99 1532 190.69 1448 190.69 1448 C 190.69 1448 176.86 1420 176.86 1420 C 176.86 1420 127.4 1321 127.4 1321 C 127.4 1321 108.06 1281 108.06 1281 C 103.71 1271.8 99.03 1262.93 96.48 1253 C 92.69 1238.28 91.98 1221.19 92 1206 C 92 1206 93 1185 93 1185 C 100.94 1186.12 108.99 1189.6 115.61 1182.66 C 121.06 1176.95 118.35 1167.89 117 1161 C 113.27 1142.04 108.38 1123.4 102.5 1105 C 92.54 1073.84 77 1038.61 61.14 1010 C 61.14 1010 42.94 978 42.94 978 C 40.55 974.09 33.18 962.71 32.39 959 C 31.46 954.59 33.59 947.48 34.58 943 C 34.58 943 40.2 914 40.2 914 C 40.2 914 56.6 819 56.6 819 C 67.41 764.96 82.25 709.43 116.5 665 C 148.97 622.88 193.19 593.16 233 558.71 C 244.15 549.07 254.77 538.66 264.96 528 C 272.5 520.11 278.29 511.02 282.57 501 C 288.66 486.77 292.07 471.54 301.6 459 C 305.96 453.26 316.22 444.8 322 439.72 C 322 439.72 351 413.84 351 413.84 C 383.37 384.93 415.9 356.06 450 329.21 C 450 329.21 476 309.35 476 309.35 C 480.78 305.72 489.62 299 495 296.95 C 504.54 293.32 514.94 292.89 525 293 C 525 293 559 296 559 296 C 559 296 594 295 594 295 C 595.79 283.56 603.72 271.75 610.67 262.72 C 629.82 237.84 666.04 217.05 698 216.93 C 698 216.93 705 216.93 705 216.93 C 720.05 217.18 720.65 222.89 736 216.93 C 750.61 210.99 772.1 191.89 784.42 181.26 C 789.44 176.92 796.37 170.34 802 167.32 C 807.49 164.38 817.09 161.24 820.26 169.04 C 821.24 171.44 821.03 177.23 821 180 C 821 180 819 203 819 203 Z M 1278 204 C 1278.91 200.8 1280.14 197.81 1281.96 195 C 1292.55 178.74 1306.48 181.19 1323 181 C 1323 181 1337 180 1337 180 C 1337 180 1366 180 1366 180 C 1366 180 1383 179.01 1383 179.01 C 1383 179.01 1397 180 1397 180 C 1436.37 180.06 1469.61 188.18 1507 199.28 C 1551.22 212.4 1594.48 229.11 1635 251.31 C 1673.19 272.23 1709.85 297.36 1741.17 327.72 C 1741.17 327.72 1759.83 346 1759.83 346 C 1759.83 346 1803.72 407 1803.72 407 C 1803.72 407 1882.42 519 1882.42 519 C 1882.42 519 1939.42 600 1939.42 600 C 1939.42 600 1959.17 628 1959.17 628 C 1961.5 631.37 1967.05 638.57 1968.28 642 C 1968.28 642 1971.28 664 1971.28 664 C 1971.28 664 1978.27 712 1978.27 712 C 1983.17 745.98 1987.75 779.78 1990.09 814 C 1990.09 814 1991 824 1991 824 C 1991 824 1992 846 1992 846 C 1992 846 1992 882 1992 882 C 2013.28 877.13 2008.86 856.49 2032 851 C 2032 851 2021 882 2021 882 C 2014.34 901.98 2008.86 922.33 2004.8 943 C 2004.8 943 1995.16 1007 1995.16 1007 C 1995.16 1007 1993.09 1027 1993.09 1027 C 1992.79 1031.1 1992.37 1040.54 1991 1044 C 1986.35 1033.06 1985.47 1020.72 1984.96 1009 C 1984.96 1009 1984.02 999 1984.02 999 C 1984.02 999 1985 985 1985 985 C 1985 985 1987.28 955 1987.28 955 C 1987.28 955 1993 910 1993 910 C 1987.26 915.73 1979.18 924.48 1970.09 919.55 C 1961.97 915.14 1962.1 904.86 1962 897 C 1961.8 882.27 1952.18 882.64 1943 874.98 C 1926 860.81 1913.35 848.08 1900.42 830 C 1892.42 818.81 1881.97 803.14 1875.76 791 C 1873.93 787.44 1869.57 780.58 1869.3 777 C 1869.05 773.54 1872.05 766.79 1873.14 763 C 1875.74 753.95 1877.89 744.46 1878 735 C 1878.29 709.8 1868.24 689.62 1848 674.51 C 1837.71 666.83 1825.49 662.16 1816.28 652.83 C 1802.82 639.19 1801.1 632.43 1793.7 616 C 1781.92 589.89 1773.91 572.07 1771.91 543 C 1771.4 535.49 1770.92 526.31 1773 519 C 1764.28 520.24 1763.45 522.17 1756 525.74 C 1747.01 530.05 1732.9 535.88 1723 536 C 1719.1 536.04 1713.66 536.26 1710 535.21 C 1703.81 533.45 1690.14 524.01 1684 520.31 C 1684 520.31 1623 481.69 1623 481.69 C 1556.53 438.88 1489.79 396.91 1421 357.96 C 1421 357.96 1384 337.49 1384 337.49 C 1384 337.49 1375 333.14 1375 333.14 C 1368.55 329.61 1342.48 315.57 1337 314.19 C 1334.2 313.78 1327.26 314.03 1324 314.19 C 1324 314.19 1305 312.17 1305 312.17 C 1305 312.17 1288 310.56 1288 310.56 C 1288 310.56 1265 305.01 1265 305.01 C 1265 305.01 1256 302.96 1256 302.96 C 1241.32 298.7 1222.81 289.83 1210 281.54 C 1192.57 270.25 1176.75 257.37 1177 235 C 1177.19 218.76 1189.66 205.17 1205 200.79 C 1208.84 199.69 1217.84 199.01 1222 199 C 1222 199 1238 198 1238 198 C 1238 198 1254 198 1254 198 C 1261.73 198.09 1271.45 199.87 1278 204 Z M 723 767.42 C 738.77 765.5 764.47 767.81 781 768 C 796.79 768.19 816.28 772.02 832 774.75 C 832 774.75 850 777.42 850 777.42 C 850 777.42 877 783.34 877 783.34 C 877 783.34 886 784.89 886 784.89 C 886 784.89 909 791.57 909 791.57 C 909 791.57 933 798.5 933 798.5 C 936.61 798.72 940.42 796.91 944 796.16 C 944 796.16 956 796.16 956 796.16 C 958.55 796.05 961.23 795.93 962.83 798.31 C 964.22 800.41 964 804.52 964 807 C 964 807 964 908 964 908 C 963.99 910.69 964.32 914.36 962.4 916.49 C 958.15 921.2 948.82 918.67 945.73 913.94 C 945.73 913.94 926.5 882 926.5 882 C 911.99 860.65 892.38 839.76 871 825.22 C 819.71 790.33 753.2 786.36 694 798.2 C 694 798.2 680 800.9 680 800.9 C 680 800.9 666 805.33 666 805.33 C 666 805.33 654 809.06 654 809.06 C 639.52 814.51 620.47 824.43 608 833.49 C 594.02 843.63 578.21 858.52 567.45 872 C 530.31 918.49 519.32 971.85 520 1030 C 520 1030 520.91 1040 520.91 1040 C 524.89 1097.91 546.37 1150.05 585.51 1193.28 C 610.14 1220.48 641.35 1242.48 676 1254.91 C 676 1254.91 686 1257.74 686 1257.74 C 686 1257.74 705 1263.49 705 1263.49 C 705 1263.49 718 1265.61 718 1265.61 C 731.16 1268.07 748.74 1270.84 762 1271 C 762 1271 782 1271 782 1271 C 803.29 1270.97 838.41 1263.05 858 1254.66 C 880.92 1244.85 901.58 1230.83 921 1215.34 C 936.32 1203.11 951.92 1185.75 963.62 1170 C 966.1 1166.67 973.56 1154.57 976.21 1153.02 C 977.72 1152.14 979.31 1152.09 981 1152.02 C 982.86 1151.94 986.79 1151.8 988.26 1152.99 C 990.23 1154.6 989.79 1157.83 989.32 1160 C 988.31 1164.64 984.47 1171.56 982.25 1176 C 982.25 1176 944.25 1250 944.25 1250 C 941.86 1254.78 934.15 1271.9 930.79 1274.4 C 928.71 1275.95 926.48 1276.02 924 1275.83 C 924 1275.83 907 1274 907 1274 C 907 1274 900 1274 900 1274 C 890.91 1274.11 878.17 1277.16 869 1278.75 C 869 1278.75 832 1286.2 832 1286.2 C 832 1286.2 817 1288.46 817 1288.46 C 817 1288.46 795 1292.92 795 1292.92 C 771.76 1296.83 748.5 1297.04 725 1297 C 725 1297 706 1296 706 1296 C 683.47 1295.73 652.7 1287.41 631 1280.86 C 559.32 1259.23 491.12 1212.97 456.26 1145 C 442.81 1118.78 432.05 1080.56 432 1051 C 432 1051 432 1021 432 1021 C 432 1021 434.92 995 434.92 995 C 440.32 962.12 450.23 935.65 467.31 907 C 507.67 839.31 574.27 798.59 649 778.88 C 649 778.88 699 769.16 699 769.16 C 699 769.16 710 768.04 710 768.04 C 710 768.04 723 767.42 723 767.42 Z M 1037.6 783.02 C 1042.11 781.1 1053.59 782 1059 782 C 1059 782 1106 782 1106 782 C 1106 782 1271 782 1271 782 C 1272.94 782 1276.72 781.75 1278.33 782.99 C 1280.47 784.78 1280.61 791.16 1278.33 792.99 C 1276.11 794.89 1268.03 795 1265 795 C 1265 795 1261 795 1261 795 C 1253.57 795.09 1246.11 796.96 1239 799 C 1216.3 805.52 1199.3 817.42 1199 843 C 1199 843 1199 999 1199 999 C 1199.01 1004.91 1199.98 1023.74 1204.42 1027.4 C 1208.17 1030.5 1216.88 1026.72 1221 1025.33 C 1234.58 1020.74 1254.9 1005.5 1266 996.13 C 1279.55 984.68 1292.89 973.2 1304.83 960 C 1326.68 935.85 1344.78 908.72 1364.65 883 C 1376.51 867.65 1396.48 843.16 1395.99 823 C 1395.45 800.99 1369.48 796.03 1352 796 C 1343.85 795.99 1335.1 798.53 1336.06 787.02 C 1336.54 781.2 1340.29 782.01 1345 782 C 1345 782 1567 782 1567 782 C 1568.99 782 1572.81 781.77 1574.4 783.02 C 1577.12 785.17 1576.5 794.06 1573.69 795.98 C 1570.64 798.06 1559.9 797.96 1556 798 C 1556 798 1546 798.91 1546 798.91 C 1546 798.91 1528 800.3 1528 800.3 C 1507.41 803.24 1480.27 814.63 1464 827.45 C 1442.31 844.55 1428.09 868.54 1412.65 891 C 1397.57 912.94 1380.8 933.86 1363.42 954 C 1349.51 970.12 1334.29 984.84 1318.83 999.44 C 1315.62 1002.47 1303.67 1012.83 1303.96 1017 C 1304.12 1019.45 1307.3 1022.3 1309 1023.91 C 1309 1023.91 1324 1036.86 1324 1036.86 C 1324 1036.86 1350 1058.28 1350 1058.28 C 1350 1058.28 1383.91 1089.42 1383.91 1089.42 C 1408.86 1112.55 1450.82 1159.27 1472.54 1186 C 1495.08 1213.73 1514.54 1243.53 1549 1257.6 C 1549 1257.6 1562 1262.91 1562 1262.91 C 1573.4 1266.68 1600.49 1271.45 1613 1273.01 C 1613 1273.01 1621 1273.96 1621 1273.96 C 1628.27 1274.31 1632.7 1273.82 1631.94 1282.98 C 1631.46 1288.8 1627.71 1287.99 1623 1288 C 1623 1288 1422 1288 1422 1288 C 1422 1288 1371 1288 1371 1288 C 1364.2 1287.96 1361.42 1287.83 1362.06 1280 C 1362.71 1272.09 1370.98 1273 1377 1272.06 C 1377 1272.06 1385 1272.06 1385 1272.06 C 1392.79 1271.05 1404.26 1267.73 1411 1263.79 C 1415.93 1260.91 1421.29 1255.17 1420.38 1249 C 1419.67 1244.21 1413.73 1235.07 1410.86 1231 C 1402.58 1219.29 1392.77 1207.58 1383.07 1197 C 1383.07 1197 1357.96 1169.99 1357.96 1169.99 C 1357.96 1169.99 1329.27 1140.91 1329.27 1140.91 C 1310.49 1120.51 1291 1097.46 1269 1080.59 C 1253.71 1068.87 1232.96 1054.24 1213 1054 C 1200.79 1053.86 1199.02 1053.1 1199 1065 C 1199 1065 1199 1223 1199 1223 C 1199.06 1228.2 1200.16 1235.05 1201.75 1240 C 1207.5 1257.92 1225.49 1267.87 1243 1271.49 C 1243 1271.49 1258 1273.08 1258 1273.08 C 1258 1273.08 1268 1274 1268 1274 C 1270.55 1274.03 1275.62 1273.64 1277.69 1275.02 C 1280.82 1277.11 1280.82 1284.89 1277.69 1286.98 C 1275.84 1288.21 1272.19 1288 1270 1288 C 1270 1288 1090 1288 1090 1288 C 1090 1288 1044 1288 1044 1288 C 1037.47 1287.91 1035.47 1287.07 1036.06 1280.01 C 1036.75 1271.76 1048.89 1273.07 1055 1273 C 1067.45 1272.85 1074.73 1269.68 1086 1265.42 C 1097.02 1261.27 1108.24 1256.4 1114.87 1246 C 1119.1 1239.37 1119.99 1231.67 1120 1224 C 1120 1224 1120 845 1120 845 C 1119.99 838.57 1119.27 831.89 1116.46 826 C 1108.54 809.4 1086.85 802.12 1070 799.41 C 1070 799.41 1048 796.28 1048 796.28 C 1045.75 796.02 1040.81 796.13 1039.15 795.4 C 1036.68 794.33 1036.26 792.45 1036.06 790 C 1035.81 786.93 1035.84 785.47 1037.6 783.02 Z" stroke-linecap="round" />
</g>
</svg>